Patient4_TMGait_0pt4_01_left_30_EMG.mot
version=1
nRows=23
nColumns=33
inDegrees=no
endheader
time	1LAddLong	2LGlutMax	3LGlutMed	4LIliopsoas	5LSemiMemb	6LBicFemLong	7LRecFem	8LVastMed	9LVastLat	10LGasMed	11LTibAnt	12lTibPost	13LPeroneusLong	14LSol	15LExtDigLong	16LFlexDigLong	17RAddLong	18RGlutMax	19RGlutMed	20RIliopsoas	21RSemiMemb	22RBicFemLong	23RRecFem	24RVastMed	25RVastLat	26RGasMed	27RTibAnt	28RTibPost	29RPeroneusLong	30RSol	31RExtDigLong	32RFlexDigLong
37.655	0.002136	-0.032196	-0.090942	-0.006866	-0.000305	-0.019836	-0.26047	0.007782	-0.039978	-0.021667	-0.10254	0.005341	0.055237	-0.000153	0.044861	-0.004883	-0.12726	-0.21713	0.1683	-0.018616	-0.22675	0.30685	-0.074615	0.023956	0.13321	-0.005646	0.14771	0.000305	-0.070038	-0.061035	-0.002136	-0.011902
37.656	0.005798	-0.018158	-0.15884	-0.005493	-0.00351	-0.040741	-0.2565	0.005035	-0.043945	-0.008698	-0.10101	0.001984	0.003815	0.003815	-0.000305	0.002899	-0.08606	-0.20004	0.11673	0.01358	-0.054932	0.18372	-0.052185	-0.00351	0.13626	0.00061	0.10803	-0.001221	-0.18646	-0.024414	-0.001984	-0.005035
37.657	-0.002594	-0.069122	-0.12878	0.012207	-0.003967	-0.017853	-0.23712	0.021057	-0.033569	-0.010834	-0.091095	0.001984	0.0354	-0.043335	-0.025024	-0.005188	-0.061493	-0.18753	-0.041504	0.018005	0.19669	-0.027008	-0.14557	0.12589	0.19501	-0.00061	-0.071259	-0.005951	-0.33295	-0.045319	-0.000458	-0.00946
37.658	0.002289	-0.084991	-0.15732	-0.009155	-0.002747	-0.01297	-0.23254	0.003662	-0.039673	-0.025177	-0.054626	0.006714	0.030823	-0.066528	0.099335	0.001221	-0.002594	-0.12665	-0.1207	0.03006	0.56458	-0.24124	-0.1236	0.22537	0.17471	0.003357	-0.16373	-0.001221	-0.075684	-0.031433	-0.003662	-0.012817
37.659	0.007324	-0.080414	-0.015869	0.006104	-0.01709	0.003357	-0.24979	0.007629	-0.036316	-0.019836	-0.065002	0.021057	0.016022	-0.026093	0.12497	0.012512	0.000916	-0.1413	0.099335	0.024719	0.48752	-0.41916	-0.024872	0.22064	0.13321	0	-0.09552	0.006561	0.061798	-0.007477	-0.001373	-0.009308
37.66	-0.000153	-0.078583	0.016022	0.011139	-0.017548	-0.00824	-0.26199	0.001526	-0.030365	-0.032349	-0.043945	0.003357	-0.031281	0.02533	0.15778	0.009003	-0.00946	-0.13321	0.068054	-0.030823	0.27847	-0.522	-0.00824	0.11032	0.071869	0	0.059509	-0.001373	-0.047607	-0.039825	-0.00473	-0.010681
37.661	0.003052	-0.046844	-0.000153	-0.001068	-0.018921	0.001526	-0.26672	0.008392	-0.031433	-0.034485	0.028381	-0.004883	-0.038452	0.029449	0.28809	0.005341	-0.022888	-0.1506	0.057678	-0.080261	0.28549	-0.50934	-0.12833	0.054016	0.045471	0.002594	0.18585	-0.001678	-0.043182	0.012817	-0.002594	-0.006561
37.662	0.003204	-0.054779	-0.06012	-0.005341	-0.013123	0.009918	-0.28	0.007019	-0.013733	-0.050507	0.054169	0.003052	-0.028992	0.095825	-0.044556	0.017395	-0.001831	-0.15411	0.099335	-0.088196	0.30197	-0.37903	-0.074463	0.062256	0.046692	-0.008392	0.11444	-0.000153	0.1329	0.00412	-0.002899	-0.006104
37.663	0.001831	-0.085907	-0.046387	-0.012817	-0.006409	0.031433	-0.27176	-0.002747	-0.006256	-0.049591	0.068054	0.010223	0.014801	0.12512	-0.23483	0.020599	0.000153	-0.076141	0.085297	-0.022125	-0.059662	-0.20126	-0.065308	0.02594	0.063019	-0.009003	0.17227	-0.002441	0.12222	-0.05249	-0.001831	-0.007324
37.664	0.006409	-0.087128	-0.015869	0.004578	-0.021515	0.037231	-0.2681	0.008392	-0.005493	-0.042877	0.076447	-0.005035	0.024719	0.095978	-0.2977	0.007019	0.027466	-0.17136	0.3096	-0.010681	-0.29236	-0.18509	0.020294	-0.09491	0.031433	-0.004272	0.26627	0.00061	0.21912	-0.11475	0.002899	-0.001984
37.665	0.006256	-0.063171	-0.005188	-0.000916	-0.000305	0.027466	-0.24384	-0.000763	0.004578	-0.036316	0.063171	-0.007172	-0.018311	0.03006	-0.16953	0.006256	0.055084	-0.19486	0.49103	-0.030212	-0.018005	-0.19913	0.13351	-0.17349	-0.065155	0.005188	0.001221	-0.001373	0.48126	-0.099182	-0.001526	0.004883
37.666	0.004425	-0.077667	0.001678	0.015411	0.011597	-0.041962	-0.24262	-0.000305	-0.004578	0.004425	0.05188	0.002289	-0.029602	0.045166	0.014648	0.007935	0.013123	-0.12222	0.1152	0.052338	-0.21271	-0.12543	0.1535	-0.23254	-0.08606	0.006866	-0.35233	0.002899	1.0991	-0.1889	-0.008545	-0.00061
37.667	0.006866	-0.067291	-0.016937	-0.003815	0.015259	-0.072327	-0.24002	0.000763	0.00061	0.1239	0.055237	0.003662	-0.011902	0.016785	0.052032	0.006561	0.005035	-0.12512	0.019989	0.10529	-0.06012	-0.088348	0.18326	-0.1648	-0.09201	0.006409	-0.33646	0.001221	0.30945	-0.21896	-0.001678	-0.001678
37.668	0.000305	-0.033264	-0.010681	-0.004272	-0.00824	-0.031281	-0.22751	-0.006409	-0.007477	0.14999	0.035553	-0.00351	0.001831	0.003357	-0.066223	0.016174	0.027313	-0.1622	0.011749	0.059052	0.68359	-0.091095	0.22583	0.028076	0.14145	0.005035	-0.10193	-0.005493	-0.70602	-0.18478	0.002441	-0.01236
37.669	0.000763	-0.078583	-0.022736	0.001678	-0.009003	-0.032349	-0.21545	0.007477	-0.015869	0.19012	0.06073	0.003967	0.019073	-0.039368	-0.02533	0.009155	0.066376	-0.17303	0.29266	0.016785	0.53986	-0.13794	0.26215	0.21545	0.39703	0.002594	-0.40939	0.000305	-0.39841	-0.088348	-0.000916	-0.013733
37.67	0.00885	-0.057831	-0.000458	-0.000458	-0.039825	-0.015106	-0.22568	-0.004272	-0.006104	0.18631	0.054016	-0.006561	0.01709	-0.042419	-0.005798	0.007782	0	-0.32181	0.4039	-0.061493	0.25009	-0.15595	0.054474	0.13748	0.79041	-0.000458	-0.28839	0	-0.22995	-0.084839	-0.005646	-0.010834
37.671	0.007935	-0.018768	-0.018921	0.012054	-0.062256	-0.03067	-0.21042	0.003052	-0.001068	0.016022	0.031128	-0.008087	-0.00473	-0.059509	0.04364	0.011139	-0.071716	-0.39368	0.073547	-0.10849	0.27985	-0.19409	-0.41351	-0.068207	0.86868	-0.006104	-0.038147	0.000763	-0.83908	0.1268	-0.006104	-0.011749
37.672	0.002289	-0.011902	0.016174	-0.016022	-0.037384	-0.01297	-0.21378	0.003967	-0.006256	-0.18967	-0.002594	-0.008087	0.002747	-0.10605	0.076294	0.00412	-0.09613	-0.43823	0.005646	-0.065002	-0.058594	-0.19119	-0.70953	-0.049896	0.52872	-0.011749	-0.087128	-0.002136	-0.34836	0.12589	-0.013885	-0.00885
37.673	0.010376	0.02121	0.019379	0.013123	0.040283	-0.004578	-0.18707	0.001526	-0.004578	-0.1265	0.02533	-0.00061	-0.035248	-0.022888	0.061493	0.01358	-0.045624	-0.45822	0.16052	-0.020752	-0.046539	-0.1886	-0.44525	0.10529	0.10208	-0.006409	0.054626	-0.001373	0.015564	0.10483	-0.001678	-0.017853
37.674	0.007172	-0.014648	0.002747	0.009766	0.039825	0.0354	-0.18387	0.001221	-0.010376	-0.17349	0.017242	0.000916	-0.089111	0.066071	0.033264	0.023193	0.019989	-0.46448	0.18402	0.040588	0.40283	-0.1889	-0.19394	-0.061493	-0.1358	-0.007019	0.18997	0.000305	-0.021362	0.061798	-0.002747	-0.001068
37.675	0.011597	-0.00885	-0.008392	0.009003	0.019531	0.054779	-0.18463	0.00824	-0.025787	-0.30762	0.039978	0.003357	-0.019531	0.091553	-0.006104	0.060577	0.08667	-0.47821	0.087738	0.087585	0.34576	-0.24841	-0.13443	-0.10086	-0.31296	-0.007477	0.40726	0	-0.16174	0.038147	-0.003052	0.000458
37.676	0.011444	0.036316	0.002899	0.00061	0.023346	0.020905	-0.16678	-0.00412	-0.006561	-0.096893	0.028687	0.026398	0.13397	0.080719	-0.036926	0.038757	0.089874	-0.36865	0.050659	0.077515	0.12283	-0.16235	-0.16464	-0.10788	-0.54794	-0.005951	0.51804	-0.002747	0.14496	0.065308	-0.000763	-0.004883
37.677	0.012512	0.064392	0.016632	-0.005646	0.021515	0.070496	-0.18158	0.009155	-0.010376	0.044403	0.031128	0.044861	0.12299	0.054474	-0.018463	-0.094147	0.1236	-0.29556	0.13611	-0.00824	0.080261	-0.16068	0.003357	-0.17212	-0.71182	-0.003357	0.24963	0.002289	0.17868	-0.010223	-0.001678	0
